<?xml version="1.0" encoding="UTF-8" standalone="no"?><svg data-v-423bf9ae="" xmlns="http://www.w3.org/2000/svg" viewBox="0 0 444 90" class="iconLeft"><!----><!----><!----><g data-v-423bf9ae="" id="42d7d607-d6b8-416b-8c2b-959649f88029" fill="black" transform="matrix(4.735595510851375,0,0,4.735595510851375,104.83818758665313,-1.716653209911776)"><path d="M2.61 13.33L1.57 13.33Q1.09 13.33 1.09 12.82L1.09 12.82L1.09 4.04Q1.09 3.53 1.57 3.53L1.57 3.53L3.55 3.53Q3.95 3.53 4.12 4.07L4.12 4.07L5.97 10.07Q6.10 10.46 6.15 10.71Q6.19 10.96 6.23 11.30L6.23 11.30L6.27 11.30Q6.30 10.96 6.35 10.71Q6.40 10.46 6.52 10.07L6.52 10.07L8.37 4.07Q8.54 3.53 8.94 3.53L8.94 3.53L10.92 3.53Q11.40 3.53 11.40 4.04L11.40 4.04L11.40 12.82Q11.40 13.33 10.92 13.33L10.92 13.33L9.88 13.33Q9.41 13.33 9.41 12.82L9.41 12.82L9.41 7.17Q9.41 6.76 9.44 6.35L9.44 6.35L9.39 6.35L7.42 12.78Q7.25 13.33 6.83 13.33L6.83 13.33L5.67 13.33Q5.25 13.33 5.08 12.78L5.08 12.78L3.10 6.35L3.06 6.35Q3.09 6.76 3.09 7.17L3.09 7.17L3.09 12.82Q3.09 13.33 2.61 13.33L2.61 13.33ZM13.04 11.42L13.04 11.42Q13.04 10.05 14.35 9.43Q15.65 8.82 17.33 8.78L17.33 8.78L17.33 8.50Q17.33 7.88 17.01 7.62Q16.70 7.36 16.14 7.36L16.14 7.36Q15.74 7.36 15.44 7.47Q15.13 7.58 14.91 7.73Q14.69 7.88 14.51 8.03L14.51 8.03Q14.20 8.30 13.99 8.05L13.99 8.05L13.43 7.36Q13.21 7.10 13.53 6.82L13.53 6.82Q13.77 6.61 14.09 6.45Q14.40 6.30 14.93 6.16Q15.46 6.02 16.30 6.02L16.30 6.02Q17.72 6.02 18.48 6.67Q19.24 7.33 19.24 8.61L19.24 8.61L19.24 12.92Q19.24 13.33 18.83 13.33L18.83 13.33L17.71 13.33Q17.34 13.33 17.34 12.92L17.34 12.92L17.34 12.71L17.33 12.71Q16.93 13.10 16.36 13.29Q15.80 13.47 15.33 13.47L15.33 13.47Q14.21 13.47 13.62 12.92Q13.04 12.37 13.04 11.42ZM15.07 11.38L15.07 11.38Q15.07 11.61 15.16 11.79Q15.26 11.96 15.46 12.04Q15.67 12.13 15.92 12.13L15.92 12.13Q16.27 12.13 16.60 12.03Q16.93 11.94 17.33 11.58L17.33 11.58L17.33 10.10Q16.18 10.23 15.79 10.43Q15.40 10.64 15.23 10.86Q15.07 11.07 15.07 11.38ZM22.61 13.33L21.51 13.33Q21.10 13.33 21.10 12.92L21.10 12.92L21.10 6.56Q21.10 6.15 21.51 6.15L21.51 6.15L22.59 6.15Q23.00 6.15 23.00 6.56L23.00 6.56L23.00 6.96L23.03 6.96Q23.34 6.42 23.83 6.22Q24.32 6.02 25.00 6.02L25.00 6.02Q26.07 6.02 26.76 6.69Q27.46 7.36 27.46 9.13L27.46 9.13L27.46 12.92Q27.46 13.33 27.05 13.33L27.05 13.33L25.96 13.33Q25.55 13.33 25.55 12.92L25.55 12.92L25.55 9.63Q25.55 8.13 25.34 7.75Q25.14 7.36 24.46 7.36L24.46 7.36Q23.74 7.36 23.38 7.91Q23.02 8.47 23.02 10.23L23.02 10.23L23.02 12.92Q23.02 13.33 22.61 13.33L22.61 13.33ZM30.96 13.33L28.68 6.69Q28.49 6.15 28.90 6.15L28.90 6.15L30.13 6.15Q30.44 6.15 30.54 6.50L30.54 6.50L31.57 10.32Q31.64 10.59 31.70 11.01Q31.76 11.43 31.76 11.55L31.76 11.55L31.80 11.55Q31.88 11.18 31.92 10.97Q31.96 10.75 32.13 10.13L32.13 10.13L33.11 6.50Q33.20 6.15 33.52 6.15L33.52 6.15L34.74 6.15Q35.14 6.15 34.97 6.69L34.97 6.69L32.66 13.62Q32.26 14.83 31.67 15.52Q31.08 16.20 30.04 16.20L30.04 16.20Q29.46 16.20 29.01 16.11L29.01 16.11Q28.75 16.05 28.81 15.75L28.81 15.75L28.96 15.00Q29.03 14.70 29.31 14.79L29.31 14.79Q29.52 14.86 29.71 14.86L29.71 14.86Q30.26 14.86 30.55 14.33Q30.84 13.81 30.94 13.43L30.94 13.43L30.96 13.33ZM35.69 11.42L35.69 11.42Q35.69 10.05 37.00 9.43Q38.30 8.82 39.98 8.78L39.98 8.78L39.98 8.50Q39.98 7.88 39.66 7.62Q39.35 7.36 38.79 7.36L38.79 7.36Q38.39 7.36 38.09 7.47Q37.78 7.58 37.56 7.73Q37.34 7.88 37.16 8.03L37.16 8.03Q36.85 8.30 36.64 8.05L36.64 8.05L36.07 7.36Q35.86 7.10 36.18 6.82L36.18 6.82Q36.42 6.61 36.73 6.45Q37.05 6.30 37.58 6.16Q38.10 6.02 38.94 6.02L38.94 6.02Q40.37 6.02 41.13 6.67Q41.89 7.33 41.89 8.61L41.89 8.61L41.89 12.92Q41.89 13.33 41.48 13.33L41.48 13.33L40.36 13.33Q39.99 13.33 39.99 12.92L39.99 12.92L39.99 12.71L39.98 12.71Q39.57 13.10 39.01 13.29Q38.45 13.47 37.97 13.47L37.97 13.47Q36.85 13.47 36.27 12.92Q35.69 12.37 35.69 11.42ZM37.71 11.38L37.71 11.38Q37.71 11.61 37.81 11.79Q37.91 11.96 38.11 12.04Q38.32 12.13 38.57 12.13L38.57 12.13Q38.92 12.13 39.25 12.03Q39.57 11.94 39.98 11.58L39.98 11.58L39.98 10.10Q38.83 10.23 38.44 10.43Q38.05 10.64 37.88 10.86Q37.71 11.07 37.71 11.38ZM45.25 13.33L44.16 13.33Q43.75 13.33 43.75 12.92L43.75 12.92L43.75 6.56Q43.75 6.15 44.16 6.15L44.16 6.15L45.24 6.15Q45.65 6.15 45.65 6.56L45.65 6.56L45.65 6.96L45.68 6.96Q45.99 6.42 46.48 6.22Q46.96 6.02 47.65 6.02L47.65 6.02Q48.71 6.02 49.41 6.69Q50.11 7.36 50.11 9.13L50.11 9.13L50.11 12.92Q50.11 13.33 49.70 13.33L49.70 13.33L48.60 13.33Q48.19 13.33 48.19 12.92L48.19 12.92L48.19 9.63Q48.19 8.13 47.99 7.75Q47.78 7.36 47.11 7.36L47.11 7.36Q46.39 7.36 46.03 7.91Q45.66 8.47 45.66 10.23L45.66 10.23L45.66 12.92Q45.66 13.33 45.25 13.33L45.25 13.33ZM52.18 7.52L51.71 7.52Q51.31 7.52 51.31 7.18L51.31 7.18L51.31 6.49Q51.31 6.15 51.71 6.15L51.71 6.15L52.18 6.15L52.18 5.91Q52.18 5.61 52.32 5.35L52.32 5.35L52.85 4.43Q53.00 4.17 53.20 4.17L53.20 4.17L53.68 4.17Q54.09 4.17 54.09 4.58L54.09 4.58L54.09 6.15L55.20 6.15Q55.60 6.15 55.60 6.49L55.60 6.49L55.60 7.18Q55.60 7.52 55.20 7.52L55.20 7.52L54.09 7.52L54.09 10.91Q54.09 11.61 54.19 11.91Q54.29 12.22 54.71 12.22L54.71 12.22Q54.92 12.22 55.19 12.14Q55.45 12.07 55.60 12.00L55.60 12.00Q55.84 11.89 55.92 12.16L55.92 12.16L56.12 12.94Q56.18 13.17 55.95 13.28L55.95 13.28Q55.72 13.38 55.33 13.47Q54.93 13.56 54.54 13.56L54.54 13.56Q53.56 13.56 52.87 13.15Q52.18 12.75 52.18 11.49L52.18 11.49L52.18 7.52ZM57.03 11.42L57.03 11.42Q57.03 10.05 58.33 9.43Q59.64 8.82 61.31 8.78L61.31 8.78L61.31 8.50Q61.31 7.88 61.00 7.62Q60.68 7.36 60.12 7.36L60.12 7.36Q59.73 7.36 59.42 7.47Q59.12 7.58 58.90 7.73Q58.67 7.88 58.50 8.03L58.50 8.03Q58.18 8.30 57.98 8.05L57.98 8.05L57.41 7.36Q57.20 7.10 57.51 6.82L57.51 6.82Q57.75 6.61 58.07 6.45Q58.39 6.30 58.91 6.16Q59.44 6.02 60.28 6.02L60.28 6.02Q61.70 6.02 62.46 6.67Q63.23 7.33 63.23 8.61L63.23 8.61L63.23 12.92Q63.23 13.33 62.82 13.33L62.82 13.33L61.69 13.33Q61.33 13.33 61.33 12.92L61.33 12.92L61.33 12.71L61.31 12.71Q60.91 13.10 60.34 13.29Q59.78 13.47 59.31 13.47L59.31 13.47Q58.19 13.47 57.61 12.92Q57.03 12.37 57.03 11.42ZM59.05 11.38L59.05 11.38Q59.05 11.61 59.14 11.79Q59.24 11.96 59.45 12.04Q59.65 12.13 59.90 12.13L59.90 12.13Q60.25 12.13 60.58 12.03Q60.91 11.94 61.31 11.58L61.31 11.58L61.31 10.10Q60.16 10.23 59.77 10.43Q59.38 10.64 59.22 10.86Q59.05 11.07 59.05 11.38ZM66.59 13.33L65.50 13.33Q65.08 13.33 65.08 12.92L65.08 12.92L65.08 6.56Q65.08 6.15 65.50 6.15L65.50 6.15L66.58 6.15Q66.99 6.15 66.99 6.56L66.99 6.56L66.99 6.96L67.01 6.96Q67.33 6.42 67.81 6.22Q68.30 6.02 68.98 6.02L68.98 6.02Q70.05 6.02 70.75 6.69Q71.44 7.36 71.44 9.13L71.44 9.13L71.44 12.92Q71.44 13.33 71.03 13.33L71.03 13.33L69.94 13.33Q69.53 13.33 69.53 12.92L69.53 12.92L69.53 9.63Q69.53 8.13 69.32 7.75Q69.12 7.36 68.44 7.36L68.44 7.36Q67.72 7.36 67.36 7.91Q67.00 8.47 67.00 10.23L67.00 10.23L67.00 12.92Q67.00 13.33 66.59 13.33L66.59 13.33Z"></path></g><!----><g data-v-423bf9ae="" id="6d95184e-05f7-472b-9759-25c5ff703e2d" transform="matrix(1.5,0,0,1.5,-2.9999914169311523,-3)" stroke="none" fill="black"><path d="M31 31V15a1 1 0 00-1-1H10a1 1 0 00-1 1v16a1 1 0 001 1h20a1 1 0 001-1zm-2-1H11V16h18v14zM16 48h8v2h-8z"></path><path d="M13 18h2v2h-2zM13 22h2v2h-2zM13 26h2v2h-2zM17 18h2v2h-2zM17 22h2v2h-2zM17 26h2v2h-2zM21 18h2v2h-2zM21 22h2v2h-2zM21 26h2v2h-2zM25 18h2v10h-2z"></path><path d="M61.964 60.733l-1.662-6a1 1 0 00-.964-.733H57v-6c0-2.206-1.794-4-4-4h-4c-2.206 0-4 1.794-4 4v6h-1.279l-.507-1.521a6.538 6.538 0 00-5.214-4.4V41a1 1 0 00-1-1H24v-4h7.734A3.27 3.27 0 0035 32.734V30h5.469L41 32.123V37c0 1.654 1.346 3 3 3h8c1.654 0 3-1.346 3-3v-4.877L55.281 31H59a1 1 0 001-1V20a1 1 0 00-1-1h-3.78A2.983 2.983 0 0053 18H43c-1.654 0-3 1.346-3 3v3h-5v-7h3a1 1 0 001-1V8h4a1 1 0 001-1V3a1 1 0 00-1-1H33a1 1 0 00-1 1v4a1 1 0 001 1h4v7h-2v-1.734A3.27 3.27 0 0031.734 10H8.266A3.27 3.27 0 005 13.266v19.469A3.27 3.27 0 008.266 36H16v4H3a1 1 0 00-1 1v12a1 1 0 001 1h34a1 1 0 001-1v-2.876a4.531 4.531 0 013.316 2.987l.474 1.423c-.034.064-.072.127-.093.199l-1.662 6A1.001 1.001 0 0041 62h20a1.001 1.001 0 00.964-1.267zM55.97 28.242c.02-.079.03-.16.03-.242v-7h2v8h-2.22l.19-.758zM42 21a1 1 0 011-1h10a1 1 0 011 1v6.877l-.97 3.881A.984.984 0 0053 32v5a1 1 0 01-1 1h-8a1 1 0 01-1-1v-5a.984.984 0 00-.03-.242L42 27.877V21zM34 6V4h8v2h-8zm1 20h5v2h-5v-2zM8.266 34A1.266 1.266 0 017 32.734V13.266C7 12.567 7.567 12 8.266 12h23.469c.698 0 1.265.567 1.265 1.266v19.469c0 .698-.567 1.265-1.266 1.265H8.266zM22 36v4h-4v-4h4zm14 16H4v-6h32v6zm0-8H4v-2h32v2zm11 4c0-1.103.897-2 2-2h4c1.103 0 2 .897 2 2v8h-8v-8zm-4.686 12l1.108-4H45v1a1 1 0 001 1h10a1 1 0 001-1v-1h1.577l1.108 4H42.314z"></path><path d="M51 47c-1.654 0-3 1.346-3 3s1.346 3 3 3 3-1.346 3-3-1.346-3-3-3zm0 4a1 1 0 110-2 1 1 0 010 2zM45 28h6a1 1 0 001-1v-4a1 1 0 00-1-1h-6a1 1 0 00-1 1v4a1 1 0 001 1zm1-4h4v2h-4v-2zM45 30h6v2h-6zM45 34h6v2h-6z"></path></g><!----></svg>